<svg xmlns="http://www.w3.org/2000/svg" viewBox="157 440 992 456"><path fill="#f2ea15" d="M706.2 449.8h11.6l41-.4h10.9c4.2.8 5.6 2.3 8.3 5.6a20 20 0 0 1 3.2 9.4l.6 4 .6 4a243 243 0 0 0 4.9 24.7q1.7 7.5 2.8 14.9l.5 3q1.5 9.1 2.2 18.4c.6 8 2.5 15.9 4.5 23.7a125 125 0 0 1 3.4 22q.8 6.5 2.3 12.9 3.4 16.8 5 34h2l-.2-3.4c0-3.2.5-5.8 1.5-9q2.3-7 3-14.3 2.3-14.3 5.6-28.4 1.2-5.4 2.1-10.9h2l.1-2q.4-6 1.9-12 1.2-4.2 1.4-8.5c.4-5.3 1.7-10.3 3-15.4a118 118 0 0 0 3-16.1c.6-3 .6-3 2-6.4a48 48 0 0 0 3.5-13.3l2.1-13.7a57 57 0 0 1 5-18.6h2v-2c3.6-2.2 6.6-2.3 10.8-2.3h2l21-.2 26.7-.2c13.5-.2 13.5-.2 17.4 3.4 2 3 3 5.1 3.7 8.7l.6 3 .5 3.2 1.8 9.6q.9 4.7 2.2 9.3 1.5 6.6 2.2 13.2a108 108 0 0 0 3.4 17.2c2.4 9 3.5 18.3 4.9 27.6q1.4 10 4.1 20c1.4 5.1 1.9 10.5 2.5 15.8a68 68 0 0 0 3.5 14.6q1.4 4.5 1.7 9.3c.8 7.4 2.4 14.5 4 21.8l3.3-18.6q3.4-19 6.3-38.2l.4-2.7 1-6.5h2l-.1-3.1a142 142 0 0 1 5.6-34.8q3-11.9 4-24.1.5-7.4 2.7-14.6 1.8-7.4 2.6-15A62 62 0 0 1 993 454h3v-2h3v-2a3414 3414 0 0 1 57.3-.6l10.4-.1c4.7 1 5.7 2.8 8.3 6.7.4 3 .4 3 0 6.2l-.4 3.4q-1.1 6-2.8 11.6-1.5 6-2.4 12l-1.4 7.8h-2l.1 1.9c.2 5.5-.4 9.9-2.4 15-1 2.7-1.3 5.3-1.7 8.1h-2l.1 2v2.5l.2 2.5c-.3 2.7-.7 4.3-1.7 6.8a63 63 0 0 0-3.4 15.6c-.8 5-2.2 9-4.2 13.6l-1.6 7.7-.3 2.1-1.6 9.3q-1.7 11.1-5.3 21.8a76 76 0 0 0-3.7 17.1q-.7 6.6-2.5 13h-2v2.7a33 33 0 0 1-1.3 8.5c-3 12-5.8 24-7.3 36.2-.4 2.6-.4 2.6-1.4 4.6h-2l-.3 3.5c-.8 7.9-1.7 15.5-3.8 23l-2 8.7-.7 2.8-1.2 5.6c-1.5 6.6-3.1 11.5-9 15.4l-7.5.3h-26.1l-30.1.2h-9.4A20 20 0 0 1 919 743c-2.8-4.3-4-9-5-14l-.5-2.2q-2-9-3.7-18.2a66 66 0 0 0-2.2-7.7q-2.9-9-4.5-18.6c-2.3-11-2.3-11-5.3-21.9-1.8-6-2.7-11.9-3.6-18q-1.4-8.9-3.9-17.5A51 51 0 0 1 888 606h-2l-1-10h-2l-.4 3.5-.7 7c-.5 4.2-1.2 7.6-2.9 11.5q-.8 3.4-1.3 6.7-1.6 8.5-4.2 16.7a154 154 0 0 0-4.5 19q-1.6 8.9-4 17.6-3.4 13-6 26.3a238 238 0 0 1-4.6 19.9q-1.4 5.1-1.8 10.4c-.4 4.4-1.7 7-4.6 10.4-4 3-7.6 3.4-12.6 3.4h-2.2l-23.2.1-29.4.1h-9.1c-3.9 0-5.4-.5-8.4-3-4-5-5.2-8.3-6.1-14.6q-.8-1.5-1.4-3.2a45 45 0 0 1-3.1-12.7 62 62 0 0 0-3.8-15.2c-4.4-11.6-6-24.6-8.2-36.8q-1.3-6.6-3.6-12.7A136 136 0 0 1 730 616h-2l-2.6-9.6c-1.3-5-1.6-9.3-1.4-14.4h-2l-.6-3.3-.8-4.3-.4-2.1q-1.4-8-4-15.4c-1.8-5.2-2.8-10-3.5-15.5a171 171 0 0 0-7.9-30.7c-2.8-9.1-5.1-18.2-5.6-27.8 0-2 0-2-1.2-2.9v-6h-2c-5.6-19.4-5.6-19.4-4-29 1.3-2.3 2.1-3.7 4.7-4.6q4.6-.7 9.5-.6"/><path fill="#f2ea16" d="m496 450 123.3-.5h5.9c7 0 11.8.6 17.8 4.5 2.8 4 3.3 7.1 3 12h2l.6 3.3 1 6.5A40 40 0 0 0 654 488l1.5 5.9q1.1 5.2 3 10.1a106 106 0 0 1 5.8 25.5l.2 2.4c.4 3.6.5 6.6-.5 10.1h4c2.7 4.8 4.6 8.3 4 14h2l.5 2q2 9 5 17.7 3 9.7 5.2 19.8a22 22 0 0 0 3.3 8.5l1.4 5.2.8 3.2 2.7 11.4.5 2q2.1 8.6 5 17c1.1 3.3 1.6 5.7 1.6 9.2h2c4 13.4 4 13.4 5 19.3.8 4.3 2.3 8 4 12 1.5 4 2.3 8 3.3 12a37 37 0 0 0 2.3 6.4q2 5 2.9 10c.5 2.4.5 2.4 1.5 4.7q1.7 4.4 2.6 9.3c.8 4.3.8 4.3 2.4 8.3l.3 4.9.1 2.6c-.6 3.4-1.6 4.4-4.4 6.5-2.8.4-5.1.5-8 .5h-68.3c-3.5 0-5.4-.2-8.1-2.4-2.6-3.5-3.5-7-4-11.4q-1.2-7.1-4.6-13.7c-3.3-2.2-4.2-2.3-8-2.3h-6.5l-13.4-.1h-10.3l-41.4-.3-45.4-.3a20 20 0 0 1 2-10h2q0-1 .3-2a32 32 0 0 1 15.2-20.3c7-3.4 12.9-4 20.5-3.7v-2a36 36 0 0 0-23.3-2.4 35 35 0 0 0-16.8 15l-.9 2.4-2.5 3.8-1.3 1.8-1.2 1.4h-2l-.3 2.6c-.8 3.8-2 6.8-3.7 10.4h-2l.2 2a26 26 0 0 1-2.3 8.6q-1.4 4.2-2.3 8.5c-1.3 5.3-2.6 9.8-7.3 13-3.2 1.2-6 1.1-9.5 1.1h-27.4l-13.3-.1-26.1-.1v-2h-2c-2.5-3.8-2.4-5.5-2-10l2-5.6q3.4-9 6.1-18l1-3 1-2.9c.9-2.5.9-2.5 2-4.6s1.1-2.1 1.3-5.6a24 24 0 0 1 2.4-8.4c2.4-5 3.8-10.2 5.3-15.6q1.4-4.8 3.2-9.4l2.2-7q1.3-4.2 3-8.3 1.8-4.3 2.8-9 2.5-9.9 5.8-19.3l1.1-3.3c2.7-7.9 2.7-7.9 3.8-9l1-7h2l.3-2.2.5-2.9.5-2.8q1-4.3 3-8.2 1.9-5.3 3.2-10.9a103 103 0 0 1 5.5-16l2.1-6.6 1-3.2q1.2-4.5 1.9-9.2h2l-.2-3c.3-5 1.9-8.7 4.3-13 1-2.1 1-2.1 1.2-5 .4-3.5 1.6-6.4 3-9.6a176 176 0 0 0 8.6-26l1.3-4.4q1.4-5 3.4-9.8c1.6-3.2 1.6-3.2 1.7-6.8 1-4.7 2.8-5.8 6.7-8.4h2z"/><path fill="#f2ea15" d="M320 449.7h63.6c4.2.4 7 1 10 3.9 2 3.4 1.8 6.5 1.8 10.3v173.7a161 161 0 0 1-4.6 40.5l-.8 3.9h-2l.2 2.5c-.2 4-1.3 7.2-2.8 10.8l-.9 2a75 75 0 0 1-15.3 22.3q-3 3.3-5.8 6.8A20 20 0 0 1 353 733l-3 1v2a134 134 0 0 1-67.4 14.5c-20.3-.2-40-1.4-58.6-10.5l-3.3-1.6q-4.4-2.1-8.7-4.4l-2-1a30 30 0 0 1-10-8.7q-4.8-5.3-10-10.2c-2-2.1-2-2.1-2-4.1h-2l-2-6h-2a169 169 0 0 1-11.4-28.1c-.6-2-.6-2-1.8-4.7-1.3-5-1-10-.8-15.2h-2l-.3-17.4c0-11.8 0-11.8 3.3-17.6 2-2 5.3-1.2 7.8-1.2h11.8l48.2-.3h4c3.7.6 5 1.4 7.2 4.5.6 2.5.6 2.5.7 5.2l.2 3c0 1.7 0 1.7.2 3.3.4 7.7 1 14.9 3.3 22.3.6 2.2.6 2.2.6 6.2h3q2.1 2.4 4 5c5.7 5.6 12.1 6.8 19.8 6.7h2.7a28 28 0 0 0 16.4-5.4 25 25 0 0 0 6.6-18.9V464c0-5.1 1.2-8 4.5-12 3.7-2.5 5.6-2.3 10-2.3"/><path fill="#87b1d1" d="M537 491.9h5.1l1.9.1v2c4.1 1 8 1.2 12.3 1.4 5.8.3 10.4 1.3 15.7 3.6l3.3.4a48 48 0 0 1 28 16.4A46 46 0 0 1 611 537l3.6 1c10.7 3 21 6 31.4 10v2h2.9c3.1 0 3.1 0 5.1 1v7h-2l-.7 1.9c-1.6 2.6-2.8 3-5.5 4.2l-2.3 1-2.5.9-2.8 1.1c-4 1.1-7.5 1.2-11.6 1.1h-2.2c-4.8 0-8.8-.8-13.4-2.2-3.2-.3-3.2-.3-6 0-2.3 1.9-2.3 1.9-2.3 4.8.3 3.6 1.3 5.2 3.3 8.2q2.2 5.4 4 11h2v6l-12 3 .2 4.5A30 30 0 0 1 597 617h-8v-1h5v-7h-6.7l-3.8-.1c-2.8 0-5 .3-7.5 1.1l-1 4 3.4-.1c3.6.1 3.6.1 5.6 2.1h-2.4c-6 0-6 0-11.4 2.2-1.5 1.7-1.5 1.7-3.2 4.8l-1.8 3c-1.2 3.1-1.9 4.8-1.2 8a35 35 0 0 0 5 4v2h-5v2h2c2 3 2 3 2 6h4v2l12-1v3h2c.3 3.7.5 5.4-1.9 8.4-2.1 1.6-2.1 1.6-4.1 1.6v2.4c-.5 8.8-.5 8.8-3 12.9-2 1.7-2 1.7-4 1.7l-1 3h-14v-2l-2.6-.3c-3.6-.7-6.2-2-9.4-3.7v-2l-2.7-.4-7.3-1.6v-2l-6.6.4-3.8.3q-4.8.4-9.6 1.3v2l-3.2 1.2a17 17 0 0 0-7.8 6.8l-5 5-2 3h-2q1.4-14 4-28h2l-.1-3c0-6.8 1.1-13.4 2.1-20 1.9.2 1.9.2 4 1l2 5c5 5.7 11.2 9.7 18 13l2 1v-3l-1.7-.2c-3.3-1.2-5.4-3.5-7.9-6l-1.4-1.5c-5.2-5.2-7.3-8.8-7.7-16.2l-.2-3.5V621c.3-3 .3-3-1.1-4.1l-.1-5.4v-3c.1-2.6.1-2.6 1.1-4.6l.7-4.1.4-2.6.3-2.7.8-5.5.4-2.7q1.7-11.9 4.7-23.4 1.4-5.7 2.2-11.5c.5-2.5.5-2.5 1.5-4.8q1.5-4.4 2.3-9l.6-3.7.7-3.7 1.3-7.5.6-3.3c.5-2.5.5-2.5 1.5-3.5l.6-4 .4-4h2v-8h2v-3.4c0-4.6 0-4.6 3-4.7"/><path fill="#f0ea1d" d="M317 810a41 41 0 0 1 4.6 3.6l2.2 2c6 6.6 6.8 12.8 6.6 21.5v3c0 5-.3 9.3-2.4 13.9l-2 1-1.4 3c-1.6 3-1.6 3-4.6 4v2h-2v2h-4v2h-16v-2l-2.3-.9C293 864 293 864 290 862v26h-14v-78h14v3l2.3-1c8.5-4 16-6.2 24.7-2"/><path fill="#eee922" d="M540 813c2.9 2.6 2.9 2.6 5 5l1.8 1.6c1.2 1.4 1.2 1.4 1.2 4.4h2c1.7 3 2.3 5.1 2.3 8.6v8c0 4.8-.4 8.8-2.3 13.4h-2l-.6 2.1A26 26 0 0 1 533 868a71 71 0 0 1-12.7.5c-5.6 0-8.9-.7-13.3-4.5l-4-5-1.5-1.4a14 14 0 0 1-3.1-5.5l-.8-2a38 38 0 0 1 .4-25.1h2v-2.6c1.5-5 4.7-7.5 9-10.4 9.5-5 22-4.9 31 1"/><path fill="#f0ea20" d="M746 810v2l1.7.3c2.8.9 4.4 2.1 6.5 4l2.2 1.8c1.6 1.9 1.6 1.9 1.6 5.9h2c.8 6.2 1 11.6 1 18l-40 1 1 8h2v3c6 2.5 12.7 3 19 1l2-3.6c1.2-2 1.2-2 3-3.4q6-.3 12 1c-.3 4.3-.5 6.5-3.4 9.8L754 861l-2 3c-7.8 5-17 4.9-26 4-7.1-1.7-11.9-7.2-16-13a22 22 0 0 1-2.3-10v-9c0-5 .3-9.3 2.3-14.1h2l.6-1.6q4.5-8 13-11c6.7-1.2 13.8-.9 20.4.6"/><path fill="#90b6bf" d="M1126.2 452.7q4.4 3.2 7.8 7.3v2h2a30 30 0 0 1 3 20 49 49 0 0 1-6 12l-3 1v2l-6 1v2l-11 .3a24 24 0 0 1-16-4.8c-6-5.9-9.1-12.4-9.4-20.9 0-3.9 1-5.6 3.4-8.6.7-2.1.7-2.1 1-4h2l.8-2.2c2-4.6 4.3-6.3 8.7-8.6a27 27 0 0 1 22.7 1.5"/><path fill="#f1ea1d" d="M874.4 814.6c2.4 2 3 4.3 3.6 7.4h2v8q-6 .6-12 0c-2.6-2.7-4-4.2-4-8a31 31 0 0 0-14.9-.6c-3.6 2.7-4.3 6.3-5.1 10.6-.7 8.9 0 16 4 24 7.8.6 7.8.6 15-1.6q3.2-3.9 5-8.4h12c.7 6.2-.3 9.9-4 15a23 23 0 0 1-15.7 7.4c-9.4.2-17-.6-24.6-6.3-6.6-6.2-7.9-15.3-8.4-24 .3-9.1 4.1-17.3 10.3-24 9.6-8.7 26.6-6.2 36.8.5"/><path fill="#f1e91a" d="M954 796h13l1 13 10 1v11h-11l1 34 10 1v12l-7.6.3h-2.2c-5.2.1-8.2-.8-12.2-4.3v-3h-2v-41h-8v-10h8z"/><path fill="#f2e914" d="M623 810h14l.2 59.3v3.5c-.3 4-1 7.7-3.5 11a14 14 0 0 1-6.7 2.2v2h-13v-12l3.4-.4c3.4-.2 3.4-.2 4.6-1.6l.3-9.9.2-19.8.2-11.6z"/><path fill="#f1e917" d="M432 809v13h-11l-2 4c-1.5 1.8-1.5 1.8-3 3h-2l-1 38h-13v-57h12v7h2l.6-1.7c4.2-6.6 10.3-6.7 17.4-6.3"/><path fill="#89b2cc" d="m524.9 819.8 2.6-.1c3 .4 4.3 1.3 6.5 3.3 3.8 5.5 4.2 10.3 4.3 16.9l.1 2c0 5.3-1.1 8.1-4.4 12.1-4.8 3.3-8.4 3.5-14 3a17 17 0 0 1-8-6v-3h-2c-.8-17.7-.8-17.7 6.1-25.4 3-2.6 5-2.8 8.8-2.9"/><path fill="#dde045" d="M1126.2 452.7q4.4 3.2 7.8 7.3v2h2a30 30 0 0 1 3 20 49 49 0 0 1-6 12l-3 1v2l-6 1v2l-11 .3a24 24 0 0 1-16-4.8c-6-5.9-9.1-12.4-9.4-20.9 0-3.9 1-5.6 3.4-8.6.7-2.1.7-2.1 1-4h2l.8-2.2c2-4.6 4.3-6.3 8.7-8.6a27 27 0 0 1 22.7 1.5M1098 463c-3 5.6-4.6 10.6-4 17h2l.4 1.7a20 20 0 0 0 8.8 12.3c6.1 1.6 12 2.4 17.7-.8l3.1-2.2 2.4-1.5 1.6-1.5v-4h2c2.1-4.2 1.5-9.4 1-14q-3-7.6-10-12c-8.3-2.8-19-1.6-25 5"/><path fill="#88b2d0" d="M302.7 819.9h3l2.3.1v2l2.3.8c3.2 1.4 4 2.1 5.7 5.2q.6 4.9.4 9.9l.1 2.7c0 5.6-.7 9-4.5 13.4a18 18 0 0 1-12 3.4c-3.7-.8-5.4-2.7-8-5.4-2.6-4.3-2.4-8.4-2.4-13.3v-2.5c0-6 1-9.4 4.4-14.2 3.4-2.3 4.7-2.2 8.7-2.1"/><path fill="#8cb2c9" d="M760 829c2.4 3.6 2.2 5.4 2.1 9.7v3.6l-.1 2.7h-8v2l2.8-.2c3.2.2 3.2.2 5.6 2.2l1.6 2c-1 3-1 3-3 4.2l-2 .8 1-7q-6-.7-12 0c-2 1.7-2.9 3-4 5.4-1 1.6-1 1.6-4 2.6-6 .5-10.7.3-16-3v-3h-2c-1.8-3.8-2-4.7-1-9h40z"/><path fill="#e9e72d" d="M529.4 669.9h3.7l2.9.1v2l2.8.4 7.2 1.6v2l6 2-4 1v2.4c0 2.6 0 2.6-1 3.6q-2.4.3-4.7.3l-2.9.1-3 .2h-3l-7.4.4c1-2 1-2 4-3.1 4.6-1.3 9.2-1 14-.9v-2a36 36 0 0 0-23.3-2.4 35 35 0 0 0-16.8 15l-.9 2.4-2.6 3.8-1.3 1.8-1.1 1.4h-1c-.2-2.9-.2-2.9 0-6l3-2-2.5-.9c-2.5-2.1-2.5-2.1-2.8-4.5q0-3.8.3-7.6l2-1-1 10h2l.7-2.2c1.6-3.4 3.4-4.6 6.3-6.8l2.4-3.2c3-3.2 4.4-3.6 8.6-3.8v-2a32 32 0 0 1 13.4-2.1"/><path fill="#97b59d" d="M395 456h2l.2 177c0 11.4-.3 22.7-2.2 34l-1 1-.6 4-.4 4h-2l-1 2q.7-4.8 1.7-9.6c2.3-11.3 2.7-22.1 2.7-33.6l.1-21.7v-16.6l.3-67z"/><path fill="#ccd85e" d="M307 456h1l1.2 189.1A30 30 0 0 1 307 657h-1l-.1-191.2v-2.3c0-5.3 0-5.3 1.1-7.5"/><path fill="#87b2cd" d="M538.6 676.9a45 45 0 0 1 5.4 3.1v2l-2 .1a38 38 0 0 0-30 15.9l-5-2c-2 1.8-2 1.8-2.7 4-1.9 3-4 3.2-7.3 4v4h-2l1-6h2l.8-2.3a16 16 0 0 1 4.2-5.7l.8-2.2c3-6.8 9.9-11.8 16.5-14.9 5.7-2 12.6-2 18.3 0"/><path fill="#d4dd55" d="m496 450 123.3-.5h5.9c7 0 11.8.6 17.8 4.5 2.8 4 3.3 7.1 3 12h2l-1 4v-2h-2v-7h-2l-1-5-3-1v-2l-128.2-.1q-9-.1-17.8 1.1l1-2h2z"/><path fill="#dce672" d="M320 449.7h63.6c4.2.4 7 1 10 3.9 2 3.4 1.8 6.6 1.8 10.4v10.7l-.1 21.9v16.7l-.1 67.6-.2 74.1h-1v-3l-.6-187.2v-2.4c0-2.3 0-2.3-.4-5.4l-3-2v-2l-66.6-.3h-4c-3.6.3-5.4 1.3-8.4 3.3h-3c2.6-6 5.9-6.3 12-6.3"/><path fill="#e8eb3f" d="M276 810h14v3l5-1-2 4h-5v-4h-9v74h9v-25l4-1v2h-2v26h-14z"/><path fill="#dae25b" d="M623 810h14l.2 59.3v3.5c-.3 4-1 7.7-3.5 11a14 14 0 0 1-6.7 2.2v2h-13v-12l3.4-.4c3.4-.2 3.4-.2 4.6-1.6l.3-9.9.2-19.8.2-11.6zm2 2v2.3l-.7 57.1c-.3 2.6-.3 2.6-2.3 4.6l-7 1v9l8.3.1c2.8 0 2.8 0 5.7-1.1v-2h4c2.4-3.6 2.2-5.3 2.2-9.6v-25.1L635 836l-.1-24z"/><path fill="#93b8b9" d="m576 598-2 5h-2l-1 4h-2c-1 3.6-1 3.6 0 7 2.5.7 2.5.7 5 1l1-3v2l3.4-.1c3.6.1 3.6.1 5.6 2.1h-2.4c-6 0-6 0-11.4 2.2q-5.8 7-7.2 15.8h-2v-7h2l-2-6-2 3h-2v4h-3v8h-2v-12h2v-6h2l.2-2.6c1-4.4 2.7-6.2 5.8-9.4h2v-2c1.9-1.5 1.9-1.5 4.3-3.1l2.4-1.7c2.3-1.2 2.3-1.2 5.3-1.2"/><path fill="#e8e739" d="m1106 464 7.8-.2 2.2-.2c5.5 0 5.5 0 8 2.2 1.4 3 1.5 5 1 8.2l-2 2-2 2c.1 3.2.1 3.2 1 6h2v4h-6c-2.9-6.6-2.9-6.6-4-10h-2v-3l6-2 1-5h-8l-1 20h-6q-.3-12.1 2-24"/><path fill="#92b4bd" d="M738.3 819.4c3.8.9 5.5 2.4 7.7 5.6 2 3.1 2 4.1 2 8h-28c1.1-5.6 2.5-7.5 6.5-11.4 3.9-2.5 7.2-2.5 11.8-2.2"/><path fill="#dae051" d="M509 703c1.3 2.7.7 4.2 0 7h-2v5l117 1v2H504c0-4.4.3-6.2 2-10h2z"/><path fill="#ced85e" d="M999 450a3414 3414 0 0 1 57.3-.6l10.4-.1c4.7 1 5.7 2.8 8.3 6.7.4 3 .4 3 0 6.2l-.4 3.4q-1.1 6-2.8 11.6-1.5 6-2.4 12l-1.4 7.8h-2v10l-2 1 1-15h2v-5h2v-5.4l-.1-3.1c.1-2.5.1-2.5 1.1-3.5l.5-4c.4-3.9.4-3.9 1.5-5v-12c-3.6-2.3-6.7-2.2-11-2.2h-26.2l-12.8.1-25 .1v2h-2v2l-3 1 1-4h3v-2h3z"/><path fill="#eee924" d="m754.3 848 5.7 1c-.3 4.3-.5 6.5-3.4 9.8L754 861l-2 3c-3 1.4-4.7 2-8 2v-4l-4-1v-1l-11-1-1-3h5.8l3.3.1c3 0 3 0 5.9-1.1l2-3.6c2.5-4 4.8-3.7 9.3-3.3"/><path fill="#eeed36" d="M393 457h1l.2 188c.1 18.2.1 18.2-2.2 27h-1v-13h2z"/><path fill="#d9de50" d="M516 570c1.2 2.5 1 3.5.5 6.1l-.4 2.6-.4 2.7-.4 2.7-2 11.8c-1.2 7.8-1.2 7.8-2.3 10.1l-.1 5.6v3c-.2 2.3-.2 2.3 1.1 3.4v6.6c0 13.9 3.6 19.2 13.2 28.8 1.8 1.8 1.8 1.8 4.8 2.6v3a49 49 0 0 1-22-15l1-2 3 1-.4-1.7c-1.7-7.2-1.8-14-1.6-21.3h-2l.4-7.3.2-2.1q0-4.4 1.4-8.6l.6-9.7c.3-5.2.3-5.2 1.4-6.3l1.4-9a21 21 0 0 1 2.6-7"/><path fill="#e4e541" d="M966 796h1l1 13 10 1v11h-11v34l-2-1v-36l2-1c.7-2 .7-2 1-4h-2z"/><path fill="#dae15c" d="M432 809v13h-11l-2 4c-2.1 1.8-2.1 1.8-4 3 1.4-3 2.7-5.6 5-8 2.7-.4 2.7-.4 5.7-.2h3l2.3.2v-10c-6.8 0-6.8 0-12.5 3l-1.5 2h-2l-1 3-3-1v-7h-10v55h11v-32h1v33h-13v-57h12v7h2l.6-1.7c4.2-6.6 10.3-6.7 17.4-6.3"/><path fill="#d2db5c" d="M706.2 449.8h11.7l48-.3h3.8c3.8.6 5 1.5 7.3 4.5l-2 1v-2h-79a18 18 0 0 0-2.1 10.7v3.6l.1 2.7c-2.8-2.8-2.3-4.5-2.3-8.4v-3.4c.3-3.5.8-4.8 3.3-7.2 3.7-1.3 7.3-1.1 11.2-1.2"/><path fill="#f4ea17" d="M624 788h13v13c-1 1-1 1-3.7 1.1l-9.3-.1z"/><path fill="#d3dc59" d="M858.8 449.7h2l21-.2 26.7-.2c13.5-.2 13.5-.2 17.4 3.6 2.8 4.2 3.1 6.1 3.1 11.1l-2 2-.1-1.9-.2-2.4-.2-2.4c-.6-2.8-1.2-3.7-3.5-5.3-3.9-1-7.5-1.1-11.5-1.2h-4l-48.8-.2h-3.5c-3.6.4-6 1.6-9.2 3.4v-2h2v-2c3.6-2.2 6.6-2.3 10.8-2.3"/><path fill="#cdd961" d="M320 449.7h63.6c3.3.3 5.5.7 8.4 2.3 1.3 2.6 1.3 2.6 2 5l-4-2v-2l-66.6-.3h-4c-3.6.3-5.4 1.3-8.4 3.3h-3c2.6-6 5.9-6.3 12-6.3"/><path fill="#d2dd59" d="m762 744 3 1 6.7.1h50q13.1.1 26.3-1.1c-2.7 2.9-4 4-8.1 4.1h-4.1l-2.3.1h-10l-50 .3h-2.1c-3.5 0-5.1-.3-7.9-2.5z"/><path fill="#98b29d" d="M624 809h15l.2 61v3.6c-.2 3.8-1 6.8-2.2 10.4h-3l1-3c1.6-6.7 1.4-13.5 1.4-20.2l.2-16 .1-11.7.3-23.1h-13z"/><path fill="#92b3a8" d="M525.4 806.9h3.7l2.9.1v2h7l1 2 4 2v2h2l3 5 2 1v4h2l.4 3.4c.2 3.4.2 3.4 1.6 4.6l.1 5.5v3c-.1 2.5-.1 2.5-1.1 3.5l-1 7h-2v4h-2v3h-3l2-5h2a76 76 0 0 0 1.1-18.8v-5q-.2-3.2-1.1-6.2h-2l-3-5a26 26 0 0 0-14-9q-9.6-.9-19 1v-2a32 32 0 0 1 13.4-2.1"/><path fill="#dce15e" d="M587.2 607.8h3.8c3 .2 3 .2 4 1.2l-.6 3.4-.4 3.6 2 2c-16.9.2-16.9.2-24-1v-1l10-1-7-1c.3-1.9.3-1.9 1-4 3.5-2.5 7-2.2 11.2-2.2"/><path fill="#e1e242" d="m569 638 7 2v2l5 1 5 1-1 8-1-3-2 1h-10v-2h-4l-2-6h-2v-2h5z"/><path fill="#92b6c0" d="M1129 467c3 1 3 1 4 3l.1 6v3.3c-.1 2.7-.1 2.7-1.1 4.7h-2l-1 3-4-1v-3l-4-2c0-4 0-4 1.4-5.7 1.6-1.3 1.6-1.3 3.6-1.3l1-5h2z"/><path fill="#bbcf6c" d="M276 810h14v3l5-1-2 4h-4v-5h-12v76h12v-27h3v2h-2v26h-14z"/><path fill="#89aeb2" d="m496 449 126.4-.5h12.9c3.4.6 4.5 1.9 6.7 4.5l-2.7-1c-5.8-1.6-11.8-1.3-17.9-1.3l-15.2-.1h-11.6l-47-.3-51.6-.3z"/><path fill="#ebe627" d="M1130 456c2.4 2 2.4 2 4 4v2h2a70 70 0 0 1 1.2 16.7c-.2 3.2-.8 5.4-2.2 8.3-2.9-2.9-2.2-5.1-2.3-9.1a23 23 0 0 0-5.7-15.9l-1.4-1.8-3.6-4.2c3-1.5 4.8-.8 8 0"/><path fill="#95b5b2" d="M1123.9 458.7c3 2.2 5 4.3 7.1 7.3l-1 2-3 1-1 5h-1l-.4-1.7-.5-2.2-.6-2.3c-.3-1.8-.3-1.8-1.5-2.8l-8-.6h-2.4l-5.6-.4v-2l15-2c-9.1-.4-9.1-.4-18 1v2l-5 1c6.2-7.2 17.1-10 25.9-5.3"/><path fill="#85afc8" d="M1114.8 458.9h2l5.2.1-1 2c-5 1.2-10 1.1-15 1-1.3 3-2 5.3-2.4 8.5-.7 4-2 5.6-4.6 8.5l-2 3q-1.3-4.4-1.2-9v-2.6c.2-2.6.7-4.2 2.2-6.4 2.6-.7 2.6-.7 5-1v-2c3.7-2.4 7.4-2.2 11.8-2.1"/><path fill="#dadf50" d="M954 820h1v3.5l.5 26.5v2.5c.1 4.6.4 7.9 3.5 11.5 1.9.8 1.9.8 4 .7h2.3l2.4.1h2.4l5.9.2-1-5-7-2v-3l10 1v12l-7.6.3h-2.2c-5.2.1-8.2-.8-12.2-4.3v-3h-2z"/><path fill="#97b3a2" d="M421 822h11v1l-3 .1c-4.8.7-7.8 3.5-11 6.9-2.4 3.6-2.3 6.2-2.3 10.4l-.3 18.2v2.1c0 2.9 0 4.8-1.7 7.2-2.6 1.7-4.9 1.4-7.9 1.3h-3.3l-2.5-.2v-2h13v-3.2l-.1-23.9v-2.2c0-3.2 0-5.7 1.1-8.7l6-5z"/><path fill="#b0c687" d="M760 829c2.4 3.5 2.2 5 2.1 9.2v3.3l-.1 2.5c-13 .6-26 1.2-39 1v5h2l1 4h-2v-3h-2c-1.8-3.8-2-4.7-1-9h40z"/><path fill="#d9df56" d="M891 624h2v7h2l.2 2.4.2 3 .3 3.1c0 2.4 0 2.4 1.3 3.5l.6 5a39 39 0 0 0 2 6.4A30 30 0 0 1 901 667h2v10h2v7h2l1 15a21 21 0 0 1-3.4-9l-.7-3.5-.8-3.8c-2.3-11.2-2.3-11.2-5.3-22.3q-2.6-9.2-3.8-18.7-1-7-3-13.7z"/><path fill="#d8df5e" d="M576 598c-.7 2.4-.7 2.4-2 5l-5 2-1 3h-2l-1 3-2.4 2.3c-2.8 2.9-3.6 5-4.6 8.7h-2v4h-2v-8h2l.2-2.6c1-4.4 2.7-6.2 5.8-9.4h2v-2c1.9-1.5 1.9-1.5 4.3-3.1l2.4-1.7c2.3-1.2 2.3-1.2 5.3-1.2"/><path fill="#90b9cb" d="m540.8 678 3.2 2v2l-2 .1a87 87 0 0 0-16 2.9l1-5c-4.8-.2-8.5.2-13 2 6.7-7.5 17.9-8.5 26.8-4"/><path fill="#e0e448" d="M987 480c1 3.3 1 5.9.6 9.3l-.3 2.7-.3 2h-2v15l-1 1c-2 7.2-2.5 14.6-3 22h-2v7h2v5l-1-2h-2l-2 10c-2.4-9.6 1-20.5 3.5-29.9q3-11.9 4-24.1a89 89 0 0 1 3.5-18"/><path fill="#9dbda0" d="M226 741c7.5 1.8 7.5 1.8 10.1 3 22.8 8.4 50 5.4 73.9 5l-1 2-43 .3h-3.6c-6.5 0-11.4-.6-17.4-3.3-2.7-.5-2.7-.5-5-.7l-2.3-.2-1.7-.1v-2h-5v-2h-5z"/><path fill="#dfe449" d="M974 552h1v6.4l.1 3.7c-.1 2.9-.1 2.9-1.1 3.9l-.8 7.8-.2 2.2h-2v5.4l.1 3.1c-.1 2.5-.1 2.5-1.1 3.5l-1 7.2-.8 5.8q-1 7.7-3.2 15h-1a68 68 0 0 1 2.2-20l.4-2c2.2-11.3 3.7-22.7 5.4-34h2z"/><path fill="#99b9a7" d="m1045 593 2 3-1 1-.4 4.2a40 40 0 0 1-2.6 10.8h-2v4.4l.1 2.5c-.1 2.1-.1 2.1-1.1 3.1l-.4 4c-.6 6-2.6 11.3-4.7 17q-1.3 5.3-1.5 10.8c-.4 2.2-.4 2.2-3.4 4.2a219 219 0 0 1 4-22h2v-2.9c0-3.1 0-3.1 1-5.1l.3-4c.6-7.5 3-14.7 5-21.9z"/><path fill="#bacd6c" d="M914 730c2.8 2.8 3 5.7 3.7 9.5 1.8 3.6 4.7 5 8.3 6.5 2.8.4 5.1.6 7.9.5h2.2l12.6.2h13.5l13.8.1 27 .2v1a5036 5036 0 0 1-63.6.5H932l-2.1.1c-5.8 0-8.6-2-12.9-5.6v-2h-2z"/><path fill="#dde24d" d="M536.5 490.9h6.1l2.4.1v2l3.8-.1c7.5 0 15.1.3 21.2 5.1l-10.2-.9-2.9-.2-2.8-.3-2.6-.2q-3.9-.7-7.5-2.4v-2l-9 1-1 7h-2v8h-2v8l-1 1-1 5.6-.6 3-.4 2.4h-1l.4-6 .3-3.3c.3-2.7.3-2.7 1.3-3.7l.4-4.6q.7-6.8 2.6-13.4h2v-2.4c0-3.5 0-3.6 3.5-3.7"/><path fill="#dae051" d="M1038 616c2.8 5.6-.4 14.3-2 20h-2v2.7a33 33 0 0 1-1.2 8.5q-2.1 7.8-3.9 15.7l-.5 2.3q-1.9 9-3 18.2c-.4 2.6-.4 2.6-2.4 4.6l4-29h2v-9h2v-9h2l-.1-2.8c0-5.2 1-10.2 2.1-15.2h2v-3c0-3 0-3 1-4"/><path fill="#dde048" d="M883 592h4l.2 2.6.2 3.3.3 3.4c0 2.6 0 2.6 1.3 3.7v8h2v11h-1a53 53 0 0 1-2-18h-2l-1-10h-2l-.4 3.5-.5 4.7-.2 2.3c-.5 4.2-1.2 7.6-2.9 11.5l-1.1 4.3-.9 3.7c-1-3.1-1-5.5-.6-8.7l.3-2.5.3-1.8 3-1 .1-3.9.3-5v-2.5l.2-2.5V596c.4-1.9.4-1.9 2.4-3.9"/><path fill="#f0e817" d="m1107 465 6.9-.1 3.8-.1c3.3.2 3.3.2 5.3 2.2v7h-2l-1-6-10-1-1 20h-4c-.1-6.7-.1-6.7 1-9l.6-6.6.2-3.6z"/><path fill="#99b5a3" d="M967 821h11l-1 2h-8v32h9v1h-5l-2.7.1c-2.3-.1-2.3-.1-3.3-1.1l-.1-7.5v-2.3z"/><path fill="#d8dd53" d="M1113.6 449.6a24 24 0 0 1 14.4 4.4l1 2h-5l2 4-2.5-1a34 34 0 0 0-10.9-1.1h-3.7l-2.9.1 1-3 13-1c-3.4-2.3-4.7-2.2-8.7-2.1h-3l-2.3.1c2.6-2.6 4-2.3 7.6-2.4"/><path fill="#e8ea47" d="M1005.8 450.9h38.5l24.7.1v1l-72 1v2h-2v2l-3 1 1-4h3v-2c3.5-1.2 6.1-1.1 9.8-1.1"/><path fill="#d6e057" d="M830 826h1v25h2l1.3 3.7a27 27 0 0 0 5.7 9.3 16 16 0 0 1-9.3-8.7c-3-9.5-5-20-.7-29.3"/><path fill="#e7e953" d="M170 620h74l1 2h-2.7l-62.1-.2h-3.9c-3.2.2-5.4.8-8.3 2.2z"/><path fill="#9bb9a8" d="M956.1 792.9h7.8c3.1.1 3.1.1 4.1 1.1v15h-1v-13h-13v14h-8v-1h7l-.3-3.2-.7-11.8c1-1 1-1 4.1-1.1"/><path fill="#9cbba4" d="M407 704h2q-2.7 11.6-6.8 22.8A39 39 0 0 0 399 743v3l-2-1c-.5-3-.5-3-.8-6.8l-.3-3.8c.1-3.6.5-5 3.1-7.4h2v-7h2v-5h2v-6h2z"/><path fill="#a0bda7" d="m1122 482 3 1 1 3h4c-1.1 3.3-1.6 3.7-4.4 5.6l-1.8 1.3c-4.6 2.8-9.6 2.7-14.8 2.1-7.2-2.5-7.2-2.5-9-6q4 .7 8 2v2l13-1v-2l-3-2h6v-4h-2z"/><path fill="#9ba" d="M747 692h1q3.9 15 7 30 .8 3.3 2 6.5c1.5 3.7 1.7 7.5 2 11.5l-2-1v-5h-2v-6h-3l1-10h-2l-.4-2.7-.5-3.5-.5-3.6c-.4-3.1-.4-3.1-1.7-5.3a12 12 0 0 1-1-6.6v-2.5z"/><path fill="#96b8b2" d="M514 671h6l-4 1v2l-3.2 1.2a17 17 0 0 0-7.8 6.8l-5 5-2 3h-2l2-18h1l1 9 4-1c1.3-2.5 1.3-2.5 2-5h3v-2h5z"/><path fill="#9dbca4" d="M165 624h2l-1 32h2l.1 2.3a45 45 0 0 0 2.5 14.2c1.4 3.6 1.5 4.1.4 7.5v-2h-2c-2.2-6-2.2-11.6-2-18h-2z"/><path fill="#d3db60" d="M784 488c2.9 2.9 2.9 6.2 3.4 10.1l1.2 7.5q.7 4.4 1.7 8.8A84 84 0 0 1 792 536h-1l-.4-2.7-3.4-20.5-.6-3.8c-.4-3-.4-3-1.6-5l-.6-8.1v-2.3z"/><path fill="#e0e34c" d="m1106 464 7.8-.2 2.2-.2c5.5 0 5.5 0 8 2.2 1.3 2.8 1.2 5.1 1 8.2l-2 1-.7-6.2c-.1-1.8-.1-1.8-1.3-2.8l-7-.6-4-.2-3-.2v2.5a67 67 0 0 1-2 19.5h4v-5h1v6h-6q-.3-12.1 2-24"/><path fill="#98b6a6" d="m948 559 1 2c.8 2 .8 2 2 3l.7 4.4.4 2.7.4 2.8.8 5.6.3 2.5c.3 2 .3 2 1.4 4v9h2v13h-1l-.1-2-.2-3-.2-2.7c-.4-2.8-1-5-2-7.5q-2.4-7.4-3.1-15.4l-.4-2.7z"/><path fill="#9db99f" d="m659 506 2 1v5h2v7h2l1 22h3c2.3 2.3 3 3.5 3.2 6.8l-.2 2.2c-2.5-2.5-3-4.7-4-8h-4v-3.4q-.1-7.1-1.4-14.2l-.4-2.4a111 111 0 0 0-3.2-14z"/><path fill="#9ab9a1" d="M1128 454c3.8 1.7 6.2 3.9 9 7v3h2a35 35 0 0 1 2 19c-1 2.8-2.2 4.6-4 7l-2-1 1.5-2.7a34 34 0 0 0 1.5-17.3l-2-3v-4h-2c-1.5-1.7-1.5-1.7-3.1-4l-1.7-2.2z"/><path fill="#d4dc5c" d="m317 810 6 5c-2 1-2 1-5 .2-3-1.2-3-1.2-4-3.2h-19c1-2 1-2 3.4-3.1 6.1-1.5 13-2.2 18.6 1.1"/><path fill="#8bafb4" d="M396 624h1c.4 29.7.4 29.7-2 43l-1 1-.6 4-.4 4h-2l-1 2 2-11c2.6-14.4 3.8-28.4 4-43"/><path fill="#b3c484" d="M1111 468h8v5l-7 2v3h2v2h-3v7h-1v-6.1l-.1-3.5q.1-4.7 1.1-9.4"/><path fill="#e0e553" d="M624 788h13v13c-1 1-1 1-3.7 1.1l-9.3-.1zm1 2v11h10v-11z"/><path fill="#9ebc9d" d="M1054 552h1c.2 6.3-.6 11.9-2 18h-2v7h-2v11h-2v5h-1c-.4-6.1.7-11.2 2.3-17.1q.9-3.5 1.2-7.2c.5-4 1.9-7 3.5-10.7q.7-3 1-6"/><path fill="#9ebcb1" d="M611 590h1v6l-12 3 .2 4.5A30 30 0 0 1 597 617h-8v-1h5l.3-2.9c.7-3.1.7-3.1 3.7-5.1.4-2.3.4-2.3.3-5 .2-2.6.2-2.6.7-5 3-2 3-2 6-3l1-1h5z"/><path fill="#93b4ac" d="M792 532c3 2 3 2 3.7 4a85 85 0 0 1 1.3 19h2l1 15c-2.3-2.3-2.4-3-2.8-6l-.4-2.5-.4-2.5-.7-5-.3-2.2c-.3-1.9-.3-1.9-1.4-3.8l-1-8.1-.3-2.3z"/><path fill="#93b6ab" d="M883 596h2c1.6 3.2 1 6.4 1 10h2q1.8 11 3 22c-2-1-2-1-2.6-2.7q-1.5-7.5-2-15.2c-.2-2.5-.2-2.5-3.4-4.1v2l-2-1z"/><path fill="#88b4b7" d="m1129 467 2 1-3 12h-2v2l-5-1c0-4 0-4 1.4-5.7 1.6-1.3 1.6-1.3 3.6-1.3l1-5h2z"/><path fill="#eee81e" d="M1116 475h4l2 9h2v4h-6l-2.4-6.6a10 10 0 0 1 .4-6.4"/><path fill="#9ab9a4" d="M447 586a29 29 0 0 1-1.5 8.7l-.8 3-.7 2.3h-2l.2 3a21 21 0 0 1-2.3 9q-2.4 6-3.9 12h-1v-7h2v-7h2v-5h2v-8h2v-5h2l.4-2.4c.6-2.6.6-2.6 1.6-3.6"/><path fill="#f2e81a" d="M1100 493h4v2h20v2h-4v2h-12v-2l-8-1z"/><path fill="#dce24d" d="M166 640h1a61 61 0 0 1 2.8 17.9 13 13 0 0 0 1.2 6.1v10c-2.2-4.5-3.1-7-3-12.1V656h-2z"/><path fill="#eee60e" d="M1092 469h1v13h2c2.2 2.8 2.2 2.8 4 6l-1 3h-3v-3h-3a25 25 0 0 1-1.1-9v-3c0-2.6.4-4.6 1.1-7"/><path fill="#dde34c" d="M832 516h1c.2 6.4.2 12-2 18h-2l.1 1.8c.2 6.6-.9 12-3.1 18.2-1.2-3.7-.6-6 .5-9.8a40 40 0 0 0 .9-6.7c.6-7.3 2.7-14.4 4.6-21.5"/><path fill="#f3eb1a" d="m1119.4 452 1.6 1-1 2c-2.8.4-2.8.4-6.3.6-5.4.3-5.4.3-10.7 1.4.1-1.9.1-1.9 1-4 5-2.4 10.3-3.1 15.4-1"/><path fill="#90b1ba" d="M299 807h15v2l-2.3-.1a29 29 0 0 0-16.9 3.2c-1.8.9-1.8.9-4.8.9v-3h-14v-1l9.8-.6 2.8-.1 2.7-.2 2.5-.1c2.2 0 2.2 0 5.2 1z"/><path fill="#9ebea3" d="M563 611c1.2 2.5.8 3.4 0 6h-2l-.4 2.4c-.6 2.6-.6 2.6-1.6 4.6h-2v4h-3v8h-2v-12h2v2h2v-4h2l.8-3.2c1-3.4 2-5.2 4.2-7.8"/><path fill="#9bb8a1" d="M811 608h2q-1 9-3 18h-2a50 50 0 0 1-2-17l3 3v2h2z"/><path fill="#a4c194" d="M329 848c1 3 1 5 0 8h-3v8l-4-1v2h-2v2c-4 2-7.3 2.2-11.8 2.1h-3.5l-2.7-.1v-1h12v-2h4v-2h2v-2l4-4c1.2-2.1 1.2-2.1 2-4h2z"/><path fill="#95b7a7" d="M425 652c1.4 3.7.6 6-.7 9.7l-1.2 3.2-1.1 3.1-1.6 4.9L417 683c-1.4-3.8-.7-7 0-11h2v-7h2l-.2-3.1c.2-4.5 1.5-6.4 4.2-9.9"/><path fill="#e3e84d" d="M746 810v2l1.8.3a10 10 0 0 1 5.2 3.7l-6-1v-2h-3v-2h-18v2l-7 1c1.4-2.9 3.6-3.4 6.5-4.4 6.6-1.6 14-1 20.5.4"/><path fill="#a2bc9c" d="M734.3 806.9h3.8l2.9.1v2l3 1-3.2-.1c-11.6-.4-19 1-27.8 9.1 1.4-3.4 3.2-5.6 6-8h3v-2c4.2-2 7.7-2.2 12.3-2.1"/><path fill="#ede933" d="M593 611v3h-18v-2a25 25 0 0 1 18-1"/><path fill="#dee151" d="M800 582c2.4 2.4 2.5 3.6 3 7l.5 3 .6 3.3.5 3.2A193 193 0 0 1 807 622c-2.4-2.4-2.4-3.3-2.8-6.5l-.4-2.7-.4-2.8-.7-5.5-.3-2.5c-.3-2-.3-2-1.4-4l-.6-8.1v-2.3z"/><path fill="#9ebc9f" d="M838 484c1 3.3 1 5.6.2 9l-.5 2.5c-.7 2.5-.7 2.5-1.7 5-1.6 4-1.9 8.2-2.4 12.4-.5 2.8-1.2 4.7-2.6 7.1v-4.4l-.1-2.4c.1-2.2.1-2.2 1.1-4.2l.6-5.1.2-2.8.2-2.1h2l-.2-2.4A41 41 0 0 1 838 484"/><path fill="#91b6b4" d="m1094 458 2 1-2 3h-2l-.4 2.3c-.6 2.7-.6 2.7-2.6 5.7-1.3 8.5 1.3 16 6 23a13 13 0 0 1-7.2-7.3c-1.6-5.7-1-11.8-.8-17.7h2v-4h2v-5z"/><path fill="#d6de55" d="M875 859v3c-8.3 6.4-15.7 6.7-26 6q-4.7-1-9-3c4-1.2 7-.8 11 0l1 1c7.4.6 13.4-.7 20-4 1.8-1.5 1.8-1.5 3-3"/><path fill="#f3eb21" d="M519 675v2h-2l-.6 1.8c-1.9 3-4.4 4.4-7.4 6.2v-2h-2c.6-3.3 1.4-5 4-7 3-1 5-1 8-1"/><path fill="#afc788" d="m569 638 7 2v2l5 1 5 1-1 8-1-3h-2v-3h-2v-2l-2.6.2c-4.1-.2-6.7-1.4-10.4-3.2l2-1z"/><path fill="#d1dd5d" d="M714 698c2 1 2 1 3 3.5q1.5 5.2 2.5 10.4 1 3.6 2.5 7.1l1.2 4 .5 2c.3 2.3 0 3.8-.7 6a71 71 0 0 1-6.4-20.2c-.3-2.7-.3-2.7-1.6-3.8l-.8-7z"/><path fill="#d7df55" d="m718 571 3 1v9h2v7h2l1 15c-2.7-4-2.2-6.2-2-11h-2l-.6-3.3-.8-4.4-.4-2.2z"/><path fill="#e2e348" d="M516 570c1.2 2.5 1 3.6.5 6.3l-.4 2.6-.4 2.7-.4 2.7q-1.3 8-3.3 15.7h-1v-6.4l-.1-3.7c.1-2.9.1-2.9 1.1-3.9l1.4-9a21 21 0 0 1 2.6-7"/><path fill="#e2e548" d="M1054 548c1.4 3.7.6 6.4-.4 10.2l-.8 3.2c-.8 2.6-.8 2.6-1.8 3.6l-1.6 8-.4 2.4-1 5.6h-1v-4.4l-.1-2.5c.1-2.1.1-2.1 1.1-3.1l.6-4.6.2-2.5.2-1.9h2v-8h2v-2.4c0-2.6 0-2.6 1-3.6"/><path fill="#88b5d0" d="m1116 487 6 3-1 3h-13v-2l-4-1v-1h7l2 2z"/><path fill="#dbe250" d="m752 712 3 1v7h2v8h2v8h2v6c-3.2-3.5-3.4-6.4-4-11l-2.2-4.9c-1.7-4.5-2.1-9.4-2.8-14.1"/><path fill="#b9d293" d="M576 598c-.7 2.4-.7 2.4-2 5l-5 2-1 3h-2l-1 3-1-2 1-2-5 3 2-4h2v-2c1.9-1.5 1.9-1.5 4.3-3.1l2.4-1.7c2.3-1.2 2.3-1.2 5.3-1.2"/><path fill="#9dbb9b" d="m1074 454 3 1c.3 6-.2 10.1-2.3 15.6-1.2 4-1.4 8.2-1.7 12.4l-3 1q1-7 2.6-13.9a58 58 0 0 0 1.4-16.1"/><path fill="#ebeb3a" d="M855 710h2a68 68 0 0 1-3.3 17.5q-1 3.6-1.2 7.3a16 16 0 0 1-3.5 9.2c-1.4-2.9-.6-5 0-8h2v-10h2v-7h2z"/><path fill="#e2e346" d="M1061 517h1v5h-2l.1 2a30 30 0 0 1-2.4 14c-1.2 3.3-1.4 6.5-1.7 10h-1v-11h2l-.1-4c0-5.4 0-12 4.1-16"/><path fill="#8db1b6" d="m553 832 2 1v5.4l.1 3.1c-.1 2.5-.1 2.5-1.1 3.5l-1 7h-2v4h-2v3h-3l2-5h2q1.2-7.2 2-14.4l.3-2.2z"/><path fill="#dbdf55" d="M680 582c3 3 3.2 6.5 4 10.4l1.4 6.7c.6 2.2.6 2.2 2.6 4.9.7 1.9.7 1.9 1.2 4l.5 2c.3 2.2 0 3.8-.7 6l-.8-2.2-1-3-1.1-3-2.1-5.2a65 65 0 0 1-2.6-9.7l-.8-3.6c-.6-3.3-.6-3.3-.6-7.3"/><path fill="#d3dd5d" d="M843 828c1.1 3.5 1 6.7 1 10.3-.1 6.5.3 11.2 4 16.7-3.9-1.5-5.2-3.3-7-7q-.4-4-.3-8v-2.2c0-3.7.2-6.6 2.3-9.8"/><path fill="#a9c28b" d="M513 827c1 2 1 2 .6 4-1.3 7-.6 14 .4 21l-2-1v-3h-2l-.3-9.9c0-4.6.5-7.4 3.3-11.1"/><path fill="#95b8af" d="M584 649v3h2c.3 2.8.3 2.8 0 6-2.5 2.4-2.5 2.4-5 4l.6-3.4c.7-3.4.7-3.4-.6-5.6-2.1-.7-2.1-.7-4.6-1.1l-2.5-.5-1.9-.4v-1l4.9-.5 2.7-.3z"/><path fill="#dee14e" d="M946 556c5.7 8.5 6.4 22 6 32a32 32 0 0 1-3.8-10.9q0-1.4-.4-2.9 0-1.5-.4-3l-.4-3.1q-.9-6-1-12.1"/><path fill="#9bb8a1" d="M928 456c2 3 2.5 4.6 3 8.1.4 3.3.4 3.3 2 5.9a58 58 0 0 1 2 20h-1l-3-15.2-1.1-5.2-.6-2.6-.5-2.6-.5-2.3c-.3-2.1-.3-2.1-.3-6.1"/><path fill="#9cbba1" d="M861 820c3 2.4 3 2.4 5 5v2h-3v-4h-14v2l-3 1c.2-1.9.2-1.9 1-4 4.1-2.6 9.3-2.9 14-2"/><path fill="#9eb89f" d="M855 806.8h3.5c3.5.2 6.3 1 9.5 2.2v2l-3.2-.3c-7.4-.5-14.4-.9-21.8.3v-2c4-2 7.4-2.3 12-2.2"/><path fill="#9cba9f" d="M487 726c1.5 4.6 2 9.6.1 14l-3.1 5h-2v2l-4-1h2q4.1-9.8 7-20"/><path fill="#dfe348" d="m516 672 4 1h-2v2l-3.8 1.2c-3.2 1.2-4 1.6-6.2 4.5l-1 2.3h2l-1 4-1-3-7 3c2.3-5.6 7.1-9.6 12-13h4z"/><path fill="#c1d271" d="M511 600c1.1 3.8 1.1 3.8 0 6l-.1 5.6v3c-.2 2.3-.2 2.3 1.1 3.4l.1 4v7.7l-.1 6.3c-2.4-3.6-2.2-5.4-2.1-9.7v-3.6l.1-2.7h-2l.4-7.2v-2c.3-4 .9-7.2 2.6-10.8"/><path fill="#d8e05b" d="M891 624h2v7h2l.2 2.4.2 3 .3 3.1c0 2.4 0 2.4 1.3 3.5l.6 6.6.2 3.6.2 2.8c-2.3-2.3-2.4-3-2.8-6.1l-.3-2.5-.4-2.6c-1-6.9-1-6.9-2.6-13.7-.9-3.1-.9-3.1-.9-7.1"/><path fill="#e5e541" d="M525 530c1.3 3.7.7 6.2-.3 9.9l-.9 3.2-2 6.1q-1.3 5.3-1.8 10.8h-1v-5.4l-.1-3.1c.1-2.5.1-2.5 1.1-3.5l.5-3.5c.5-3.5.5-3.5 1.5-4.5l.4-3.4c.6-3.6.6-3.6 2.6-6.6"/><path fill="#d5df5d" d="m609 528 2 1v6l2 .3c5.8 1 10 2.5 15 5.7-4 1.5-6.8.4-10.7-.9l-3.5-1C611 538 611 538 610 537l-.8-7z"/><path fill="#a5c298" d="M344 739v2h-3v2h-5v2l-3.4.4c-3.4.2-3.4.2-4.6 1.6h-8v-1l2.5-.8q9-2.6 17.8-5.7c1.7-.5 1.7-.5 3.7-.5"/><path fill="#c7d46c" d="M582 614q3 0 5.9.3l3.3.2 2.8.5 2 3c-16.9.2-16.9.2-24-1v-1l10-1z"/><path fill="#dee24c" d="M838 488h1v12h-2v7h-2v8l-2 1c.6-12.8.6-12.8 2.5-16.8A31 31 0 0 0 838 488"/><path fill="#acc590" d="M523 676c8.2-.4 14-.4 21 4v2l-12 1 1-2 7-1c-6-2.2-11.6-2.2-18-2z"/><path fill="#d6de57" d="m505 860 6 3v2h3c3 0 3 0 4 1l7.6.6h2.1l5.3.4v1l-9.6.3h-2.8c-5.9.1-9.1-.4-13.6-4.3-1.4-2.2-1.4-2.2-2-4"/><path fill="#99baa5" d="M433 624h2a676 676 0 0 1-6 23.3c-1 2.7-1 2.7-3 3.7l1-10h2v-6h2v-6h2z"/><path fill="#9fbfa7" d="M188 712q7.2 5.8 13 13l-4 2-5-5 2-2-1.3-1.2-1.7-1.7-1.7-1.6C188 714 188 714 188 712"/><path fill="#aac694" d="m908 704 2 1 1.6 7q0 1 .4 2.1 1.2 6.9 2 13.9l-1-2h-2l-.7-6.2c-.1-1.8-.1-1.8-1.3-2.8l-.6-6.6-.2-3.6z"/><path fill="#dae154" d="m711 539 2 1 1.6 8c.4 4.9.4 4.9 2.4 9l.8 9.4.2 2.6c-4-6.1-4.7-12.8-5.6-19.9l-.4-3z"/><path fill="#aec78d" d="m738 655 2 1 1.6 7.5q0 1 .4 2.2 1.2 7.6 2 15.3c-2-2-3-3.4-3.2-6.3q0-3.4.2-6.7h-2z"/><path fill="#abc498" d="m640 547 6 1v2h2.9c3.1 0 3.1 0 5.1 1v7h-2l-2 4-2-1 2-2c.5-2 .5-2 .6-4.1l.4-3.9h-7v-2l-4-1z"/><path fill="#96b6af" d="m748 847 9-.4c3.6.5 4.7 1.6 7 4.4-1 3-1 3-3 4.2l-2 .8 1-7h-3.2q-4.5 0-8.8-1z"/><path fill="#9ebaa3" d="M293 824c1.3 2.7.7 4.2 0 7h-2l1 15h1l1 7c-3.9-3.7-3.9-3.7-4.2-6.9v-7.4l-.1-2.6c0-4.9.2-8.1 3.3-12.1"/><path fill="#aec691" d="m544 816 3.5 2.3 2 1.2 1.5 1.5v4h2v19h-1l-.2-3.4-.2-4.4-.2-2.2q-.2-5-1.4-10h-2a31 31 0 0 1-4-8"/><path fill="#d7de55" d="m520 688 2 1-1.8 1.5a15 15 0 0 0-3.6 6.6c-1.3 3.7-1.3 3.7-4.3 5.4l-2.3.5c1.2-7 4.8-10.4 10-15"/><path fill="#e3e646" d="M872 640c1.7 4.1.3 7.8-.9 11.9q-2 7-3.1 14.1h-1c-.2-7 .2-13.2 2-20h2v-2.4c0-2.6 0-2.6 1-3.6"/><path fill="#d7e055" d="m648 562 2 1c-1.3 2.6-2.3 2.6-5 3.6-2.7.8-2.7.8-5 2.4h-16v-1h2c11.8-.8 11.8-.8 22-6"/><path fill="#98b8a4" d="M524 538h1a32 32 0 0 1-2.3 14.7A53 53 0 0 0 521 564h-2a57 57 0 0 1 4-20z"/><path fill="#e3e640" d="M978 532h1v7h2v5l-1-2h-2l-2 10a32 32 0 0 1 2-20"/><path fill="#a4bf9e" d="M1106 463h20l1 9-2 2-.4-1.7-.5-2.2-.6-2.3c-.3-1.8-.3-1.8-1.5-2.8l-8-.6h-2.4l-5.6-.4z"/><path fill="#9ebaa8" d="M329 824h2c3.3 12.9 3.3 12.9 1 18.4l-1 1.6h-1z"/><path fill="#8fb6b6" d="M432 822v1l-3 .1c-6.1.9-9.9 5.8-14 9.9q.4-5.6 4.2-9.8c3.8-2.5 8.5-1.6 12.8-1.2"/><path fill="#9bbba4" d="M897 656h1c2.5 8.7 4.6 17 5 26-2.8-2.8-3-5.8-3.6-9.6-.4-4.6-.4-4.6-2.4-8.4z"/><path fill="#a2bf9d" d="M696 635a17 17 0 0 1 3 3v4h2v7h2v7l-1-4h-2l-1.4-5.7-.8-3.2z"/><path fill="#d6de5b" d="m610 588 3 1c.2 6 .2 6 0 8-2.5 2.5-3.7 2.4-7.1 2.6l-2.8.3-2.1.1v8h-1v-9c7.5-3 7.5-3 12-3v-6h-2z"/><path fill="#97b6a2" d="M969 576c1.6 4 .5 7.8-.4 11.9l-.8 4.2-.4 2-1.4 7.9h-1v-14h2l-.1-3.2a19 19 0 0 1 2.1-8.8"/><path fill="#9ab99f" d="M800 578h3c2.3 16.7 2.3 16.7 2 25h-1l-1.4-9.1-.4-2.6z"/><path fill="#dbe44e" d="m867 848 1 2c-.8 1.7-.8 1.7-2 3.6l-2 3.4h-3v2h-10v-2h1.8c5.2-.5 8.4-1 12.2-5 1.3-2.1 1.3-2.1 2-4"/><path fill="#cfda59" d="M546 681v3l-20 2c1-2 1-2 4-3q7.8-2 16-2"/><path fill="#d5df5f" d="M580 662h1v14h-2v3l-6 1 2.4-2.4c3-3.6 3.3-6.9 3.5-11.4.1-2.2.1-2.2 1.1-4.2"/><path fill="#c9d667" d="M824 554h1c.3 6.3-.7 11.5-2.5 17.5l-.7 2.5-1.8 6c-1.3-4.3-.5-8 .4-12.2l.5-2.3 1.1-5.5h2z"/><path fill="#9abb9e" d="m936 499 3 1 .2 2.4.2 3 .3 3.1c0 2.4 0 2.4 1.3 3.5v10h-1l-2-9.2-.6-2.7-.5-2.6-.5-2.3c-.4-2.2-.4-2.2-.4-6.2"/><path fill="#d1db63" d="M932 480c5.8 5.8 4.6 19.2 5 27-5-7.6-4.5-18.2-5-27"/><path fill="#95b3a5" d="M781 464h2l.2 2.2.2 2.7.3 2.8c0 2.3 0 2.3 1.3 3.3l.6 7.6v2.1l.4 5.3c-2.3-2.3-2.4-3.2-2.9-6.4q0-1.4-.3-2.7l-.4-2.8-.4-2.7q-1-5.7-1-11.4"/><path fill="#a1bda0" d="M1105 464h1q.2 8.3-1 16.5l-.3 2.2-.7 5.3h-1l-.1-10.3v-3l-.1-2.8v-2.6c.2-2.3.2-2.3 2.2-5.3"/><path fill="#a8c097" d="M855 720c1 3.3 1 5.9.6 9.3l-.3 2.7-.3 2h-2v8l-3 1c1-8 2.4-15.4 5-23"/><path fill="#a2bf9f" d="M413 684h3c-1.9 6.9-1.9 6.9-3 8l-1.4 7.7c-.6 2.3-.6 2.3-2.6 4.3v-8h1l1-6h2z"/><path fill="#e2e645" d="m897 650 2 1a44 44 0 0 1 2 16h2v7a46 46 0 0 1-6-24"/><path fill="#91b2b1" d="m786 492 1 4h2l.2 2.4.2 3 .3 3.1c0 2.4 0 2.4 1.3 3.5v12h-1l-.3-1.8-1.1-8-.4-3-.4-2.6-.4-2.5c-.3-2.2-.3-2.2-1.4-4.1z"/><path fill="#d5dc55" d="M1069 485c1.5 4.5.3 7.5-1 12h-2v10l-2 1 1-15h2v-5h2z"/><path fill="#9abba2" d="m1117 457 2 2-2.5.2-3.2.2-3.3.3q-3.5.3-7 1.3v2l-5 1c5.4-6.2 11-7.6 19-7"/><path fill="#a3bea4" d="M729 820c10.7-.8 10.7-.8 14 1.1 1.3 1.4 1.3 1.4 3 3.9l-1 2-2-4-7 1v-2l-7-1z"/><path fill="#a6bf8f" d="m550 677 2.5.4q5.8 1 11.5 1.6v1h9l-1 2h-14v-2l-2.9-.4c-3.1-.6-3.1-.6-5.1-2.6"/><path fill="#d6e058" d="M845 456c1 3.3 1 5.9.6 9.3l-.3 2.7-.3 2h-2l.1 3.9c.1 2.2.1 2.2-.1 4.1l-2 2c.4-8.4 1-16 4-24"/><path fill="#bcce77" d="M881 603c1 3 1 5 .3 8.1l-.6 2.4L877 626c-1-3.1-1-5.5-.6-8.7l.3-2.5.3-1.8 3-1v-3.4c0-3.6 0-3.6 1-5.6"/><path fill="#d5dd64" d="M748 848c2.8 0 2.8 0 6.1.4l3.3.3 2.6.3v5l-1-4q-2.4 0-4.9.3h-2.7c-2.6.5-2.6.5-3.7 2.7l-.7 2h-3c1-3 1.8-4.8 4-7"/><path fill="#bcd381" d="m521 650 4.4 3.8c1.7 1.4 1.7 1.4 4.6 2.2v3a37 37 0 0 1-12-6l3-1z"/><path fill="#eee71d" d="M1133 487c-.7 5.8-.7 5.8-3 8h-5c4.4-8 4.4-8 8-8"/><path fill="#96b9a9" d="m533 677 1 2-2.9.1-3.7.3-3.8.2a41 41 0 0 0-9.6 2.4c2.1-2.5 3.5-3.9 6.7-4.7q6.2-.5 12.3-.3"/><path fill="#d8e154" d="M974 552h1l.1 6.3.1 3.6c-.2 3.1-.2 3.1-2.2 6.1l-1 6h-1c0-4.8 0-9.2 1-14h2z"/><path fill="#a7c397" d="M477 486h3c-3 12.7-3 12.7-5 18-2.1-6 .2-12.2 2-18"/><path fill="#dce256" d="M326 820c2 1 2 1 3.1 3.2 1 3 1.1 5 1.1 8.1v6l-.1 3.1-.1 7.6h-1v-1.7l-.4-8v-2.7A42 42 0 0 0 326 822z"/><path fill="#eceb36" d="m518 673 3 1 10.4.5 5.6.5 1 2h-3l-4.1-.1h-2c-4.4-.1-7.9.5-11.9 2.1v-2h2z"/><path fill="#a2bf9a" d="M1034 636h1c.1 7.8.1 7.8-1 10l-.5 7.7c-.5 2.3-.5 2.3-3.5 4.3a219 219 0 0 1 4-22"/><path fill="#d5de58" d="M886 602c1.5 1 1.5 1 3 3q.3 4 0 8h2v11h-1a53 53 0 0 1-2-18h-2z"/><path fill="#a1bea3" d="M534 493h1v8l-1 1-.6 5-.2 2.8-.2 2.2h-2l-1 4v-8h2v-8h2z"/><path fill="#a2be95" d="M983 496h1q.4 10.1-2 20l-2 2 .5-9.8c.2-4.4.9-8 2.5-12.2"/><path fill="#dbe050" d="m491 454 2 1-1.5 1.2c-1.8 2.2-1.9 3.2-2 6-.3 5-2 8.4-4.5 12.8-1.2-3.8-.5-5.5 1.2-9.1 1-2.2 1-2.2 1.3-5.6.5-3.4.9-4.4 3.5-6.3"/><path fill="#dfe14c" d="m316 832 3 2c.3 2.4.3 2.4.2 5.1v2.8l-.2 2.1h-3z"/><path fill="#98b8ab" d="M835 813c2.1.4 2.1.4 4 1l-1.7 1.4c-3.3 3.7-5.2 8-7.3 12.6h-1c-.2-2.9-.2-2.9 0-6l3-2 1-5z"/><path fill="#e1e655" d="M564 640c4.2.5 6.8 1.2 10 4h-5v2l3 1-4 1-2-6h-2z"/><path fill="#95b5b3" d="m555 613 2 1-1 4h-2v6h-2v12h-1l-.1-7.2v-2.1c-.1-3.8 0-6.5 2.1-9.7h2z"/><path fill="#acc48d" d="M706 524c2.2 3.3 3 6.2 4.2 10l1 3.8c.8 3.2.8 3.2-.2 6.2-2.7-2.7-2.9-5.1-3.6-8.9l-.8-3.7c-.6-3.4-.6-3.4-.6-7.4"/><path fill="#9abba1" d="M312 824c2 1.4 2 1.4 4 4q.6 5 .3 10.3l-.1 2.8-.2 6.9h-1v-17h-2z"/><path fill="#a3bf9f" d="m356 730 2 1-3 1v3h-3l-.9 2c-1.1 2-1.1 2-3.1 3l-4-2 6-2v-2z"/><path fill="#a0bda0" d="m371 716 1 2c-3 7-3 7-6 9-2.1-.4-2.1-.4-4-1l1.5-1.4 1.9-2c1-.8 1-.8 1.9-1.8 1.9-1.9 1.9-1.9 3.7-4.8"/><path fill="#a2bc9d" d="M691 616h2l1.5 6.1.8 3.5q1 4.6.7 9.4c-2.4-3.6-3-7-3.6-11.2l-.4-2.3z"/><path fill="#d2da5c" d="m954 596 2 1c.4 1.9.4 1.9.6 4.3l.3 2.5.2 2.8.3 2.7.6 6.7h-2c-.9-2.6-1.2-4.3-1.3-7l-.1-2.3-.2-2.4V602z"/><path fill="#d6dc5d" d="M796 558c4.5 4.5 4.1 12.5 4.1 18.6l-.1 5.4h-1v-10h-2z"/><path fill="#dcdf51" d="M655 496a72 72 0 0 1 3.6 8l.8 2c.6 2 .6 2 .6 6l-3-1v-7h-2z"/><path fill="#81b1d5" d="m1129 467 2 1-3 12-3-1 2-10h2z"/><path fill="#dbe14f" d="M720 864c6.9.9 6.9.9 8 2h16c-2.5 2.5-4.1 2.3-7.6 2.3h-4.3c-4.8 0-8-.8-12.1-3.3z"/><path fill="#e2e849" d="m310 854 2 1c-2.2 2.3-4 3.9-7.3 4.3-6 0-6 0-8.7-1.3v-2h2l2.8.1 2.6.1c2.7-.2 4.2-1 6.6-2.2"/><path fill="#9ebfa1" d="M497 848a33 33 0 0 1 2.9 7.1c.8 3 .8 3 3.1 4l2 .9 2 3-8-4v-3h-2z"/><path fill="#a0b99b" d="M531 809h8l1 2 4 2v2h2l-1 2-1.8-1q-5.9-3.6-12.2-6z"/><path fill="#a4bf87" d="m598 608 2 1-3 8h-8v-1h5l.3-2.9c.7-3.1.7-3.1 3.7-5.1"/><path fill="#eeee38" d="M563 607h2a40 40 0 0 1-6 11h-2c1.3-4.5 2.8-7.6 6-11"/><path fill="#d9df54" d="M1046 581c1 3.3.9 5.6.1 9l-.5 2.5-.6 2.5-1 5h-1c-.2-6.3.2-12 2-18z"/><path fill="#9abaa6" d="m469 512 2 1-.9 4.9-.5 2.7c-.6 2.4-.6 2.4-2.6 4.4l-1 5h-1v-7h2v-6h2z"/><path fill="#a2c0a0" d="M697 484h1c2.3 6.6 2.6 13.1 3 20l-2-1-1-7-1-1z"/><path fill="#dde050" d="M781 468h1a89 89 0 0 1 2 20l-1-2c-.8-2-.8-2-2-3a185 185 0 0 1 0-15"/><path fill="#d6e05b" d="M868 846h12c.3 5.4.4 8.5-3 13-1.3-2.7-.7-4.2 0-7h2v-5h-11z"/><path fill="#99b9a6" d="m758 822 3 1v4h2v16h-1l-.2-2.1q-.7-8.5-1.8-16.9h-2z"/><path fill="#ede831" d="m721 813 2 1-4 1v2h-2l-.8 3-1.2 3-3 1c.4-4.8 2.4-6.9 6-10z"/><path fill="#c7d568" d="M277 810h13v3l5-1-2 4h-4v-5h-12z"/><path fill="#b9ce82" d="M914 730c2.3 2.3 2.6 3.7 3.4 6.9 1.1 4 2.2 6.5 5.6 9.1-2.4-.8-2.4-.8-5-2l-1-3h-2z"/><path fill="#a2bf9a" d="M172 682c3.1 1.6 3.4 4.2 4.6 7.4l1.4 3.6c1 3 1 3 1 5h-2c-2.6-5.4-4.5-10-5-16"/><path fill="#d2db60" d="M673 556h1l1.4 5.6.8 3.2q1.1 4.5 1.8 9.2l-3-1v-9h-2z"/><path fill="#d9de55" d="M704 514h3l.2 2 .5 5c0 2 0 2 1.3 3v6a28 28 0 0 1-3.6-7.4l-.8-2.3c-.6-2.3-.6-2.3-.6-6.3"/><path fill="#a6c08c" d="M1100 489q4 .7 8 2v2l11 1v1c-6.9.5-12.3.1-18-4z"/><path fill="#f1eb20" d="M1091 484h2v2h2l1-2c1.6 1.8 1.6 1.8 3 4l-1 3h-3v-3h-3z"/><path fill="#97bab9" d="M398 728h1v18l-2-1c-.5-3-.5-3-.7-6.9l-.3-3.8c0-3.3 0-3.3 2-6.3"/><path fill="#93b9be" d="M504 698c-.1 1.9-.1 1.9-1 4-3 1.3-3 1.3-6 2v4h-2l1-6h2v-2c3.8-2 3.8-2 6-2"/><path fill="#dee450" d="M747 688h2v7h2v9a18 18 0 0 1-3.1-7.4l-.5-2.3c-.4-2.3-.4-2.3-.4-6.3"/><path fill="#adc388" d="M498 672h1v4.8l.1 2.6c0 2.4-.4 4.3-1.1 6.6l2 1-2 3h-2z"/><path fill="#9dba9f" d="M1029 660c1.1 3.4 1 6.2.6 9.8l-.3 3-.3 2.2-3 1q.9-8 3-16"/><path fill="#9fbb9e" d="M502 654h1v12h-2l-1 6h-1l1-10h2z"/><path fill="#9dbaa1" d="M842 464c1.5 3 .7 5.5.2 8.9l-.5 3.7c-.7 3.4-.7 3.4-2.7 7.4v-10h2v-4.4l-.1-2.5c.1-2.1.1-2.1 1.1-3.1"/><path fill="#99b4b0" d="M1112 469h5l1 5h-6z"/><path fill="#94b5b4" d="m691 454 2 1v15h-2l-1.1-5.2-.7-3c-.2-3.1.4-5 1.8-7.8"/><path fill="#9cbaae" d="M418 809h5l-2.2 1.8c-2.8 2.1-2.8 2.1-5 4.5-1.8 1.7-1.8 1.7-3.8 1.7v-7l1 2c2-.3 2-.3 4-1z"/><path fill="#dbe157" d="M1013 728c1.4 3.7.6 6-.8 9.7l-1 3c-1.2 2.3-1.2 2.3-3.2 3.3l1.4-6.9.7-3.8c.9-3.3.9-3.3 2.9-5.3"/><path fill="#9fbea2" d="m512 682 2 1c-.2 1.8-.2 1.8-1 4-2 1.5-2 1.5-4.6 2.8L506 691l-1.9 1a31 31 0 0 1 8-10"/><path fill="#e6e545" d="M393 652h1c.3 7-.4 13.2-2 20h-1v-13h2z"/><path fill="#b9cb88" d="M552 624h2v2h2v2h-2v8h-2z"/><path fill="#94b7a8" d="M513 592a37 37 0 0 1-2 22h-1c-.1-7.7-.1-7.7 1-10l1-6.1.6-3.3z"/><path fill="#e3e447" d="M792 536c2 3 2.3 4 2.6 7.6.2 3.3.2 3.3 1.4 6.4v8h-1c-1.6-5-2.3-9.6-2.6-15l-.1-2z"/><path fill="#9fc09c" d="M973 544h3l-2 16h-1z"/><path fill="#a6c090" d="m792 532 3 2q.6 4 .7 8.1v2.3l.3 5.6c-3-3-2.7-6.2-3.1-10.1z"/><path fill="#cbd664" d="M467 524c1.5 3 .8 5.8 0 9l-4 9-1-4h2l-.2-3c.2-4.6 1.2-7 3.2-11"/><path fill="#c4d16e" d="M987 480c1 3.3 1 5.9.6 9.3l-.3 2.7-.3 2h-2v6h-1a59 59 0 0 1 3-20"/><path fill="#e3e646" d="M325 745v1l-6.7 1.6-3.8.8c-3 .5-4.7.7-7.5-.4a35 35 0 0 1 18-3"/><path fill="#e6e841" d="M908 700c5.1 5.8 5.3 12.6 5 20h-1z"/><path fill="#dde050" d="M387 684c1.2 2.9 1 4 0 7l-1.4 3.3-1.5 3.2-1.1 2.5c-1.4-2.9-.6-5 0-8h2l.4-3.4c.6-3.6.6-3.6 1.6-4.6"/><path fill="#f2ea1b" d="M507 684c-.3 2.4-.3 2.4-1 5l-3 2-2-1v-4c3.8-2 3.8-2 6-2"/><path fill="#a9c28f" d="M421 666c0 3.7-1 6.6-2 10.2l-.6 2-1.4 4.8c-1.2-4-.7-7 0-11h2l.4-2.4c.6-2.6.6-2.6 1.6-3.6"/><path fill="#dbe24a" d="M815 597a25 25 0 0 1 .8 10l-.3 3.2c-.5 3-1.1 4-3.5 5.8l1.2-10q.5-4.7 1.8-9"/><path fill="#d4dd5d" d="m1103 452 2 1-8 7-2-1c4.6-5.9 4.6-5.9 8-7"/><path fill="#a9c48d" d="M859 702c1 3.3 1 5.9.6 9.3l-.3 2.7-.3 2h-3q1.1-7 3-14"/><path fill="#97b7ae" d="M386 690h1v7h-2v4h-2l-.4 2-.6 2-2 1q2.6-8 6-16"/><path fill="#acc291" d="M863 684c1 3.3 1 5.9.6 9.3l-.3 2.7-.3 2h-3q1.1-7 3-14"/><path fill="#a4bf96" d="M867 666c1 3.3 1 5.9.6 9.3l-.3 2.7-.3 2h-2l-1 2q.9-8 3-16"/><path fill="#d9e24f" d="m299 669 1 4c-5.5 3.1-5.5 3.1-10 2z"/><path fill="#a6c093" d="M871 647c1.1 3.4 1 6.2.6 9.8l-.3 3-.3 2.2h-2l-1 2q1-8.6 3-17"/><path fill="#aac18b" d="M250 650c2.6 3 3 3.7 3 8h2v6h-2l-1.5-4.7-.8-2.7c-.7-2.6-.7-2.6-.7-6.6"/><path fill="#c7d86f" d="M564 604h4v4h-2l-1 3-1-2 1-2-5 3 2-4h2z"/><path fill="#9fbea1" d="m758 856 2 4a16 16 0 0 1-8 4c1-2.6 1.6-3.8 4.1-5.2l1.9-.8z"/><path fill="#e0e64b" d="m532 854 2 1-2 4-12-1v-1l2.4-.4 3-.5 3.1-.6c2.4-.2 2.4-.2 3.5-1.5"/><path fill="#dee14e" d="m840 812 2 1a31 31 0 0 1-5 7h-3c1.4-3.4 3.3-5.5 6-8"/><path fill="#cdda65" d="M1017 710c1.4 3.9.5 6.8-.4 10.8l-1 3.5-.6 2.7a21 21 0 0 1-.7-9q0-1.4.3-2.7c.4-2.3.4-2.3 2.4-5.3"/><path fill="#e8eb3e" d="m576 679 2 1c-2.7 2.7-4 3-7.9 3.3l-4.4-.1h-2.2l-5.5-.2v-1l3-.1 3.8-.3 3.7-.2a18 18 0 0 0 7.5-2.4"/><path fill="#8fb1b1" d="M1038 622h1c.3 6.7-.5 11.8-3 18-1.5-4-.5-7.2.4-11.2l1-3.9q.2-1.5.6-2.9"/><path fill="#98b8aa" d="M720 584c2.2 3.2 2.2 4.3 2 8h2v8l-1-4h-2z"/><path fill="#e9e93b" d="M605 565a93 93 0 0 1 19 3v1c-5.2.2-9.2.3-14-2l-5-1z"/><path fill="#ccd669" d="M525 530c1.4 3.8.6 6.4-.4 10.3l-1 3.2-.6 2.5c-1-3-1-5.4-.7-8.6l.3-2.3c.4-2.1.4-2.1 2.4-5.1"/><path fill="#acc588" d="M393 662c1 3.3 1 5.9.6 9.3l-.3 2.7-.3 2h-2l-1 2z"/><path fill="#e2e545" d="M255 664c2.6 2.6 5 5 7 8-5.9-.9-5.9-.9-7-2z"/><path fill="#a1baa8" d="M563 624h3l-3 10h-2v-7h2z"/><path fill="#d0da61" d="m700 498 3 1 1 13a29 29 0 0 1-4-14"/><path fill="#a0ba9b" d="M653 486c2 1 2 1 3 3q1.8 6 2 12l-2-1c-.9-2.7-.9-2.7-1.6-6l-.8-3.2c-.6-2.8-.6-2.8-.6-4.8"/><path fill="#dee248" d="m1119 470 1 4-4 2v5l-2-1v-2h-2v-3l3-.8 3-1.2z"/><path fill="#83afd0" d="M1113 459v2q-1.5 0-2.8.3c-3.3.4-3.3.4-5 2.8l-1.2 1.9-1-5c3.4-2 6-2.2 10-2"/><path fill="#96b5b1" d="M638 872h1l-1 11-4 1 2-8h2z"/><path fill="#eeee3b" d="M534 811c3.8 1 6.5 2 9 5h-7l-2-2z"/><path fill="#d2dc5c" d="M503 646c1.3 3.7.8 6.5 0 10.3l-.5 3.2-.5 2.5h-1l-.1-6.3-.1-3.6c.2-3.1.2-3.1 2.2-6.1"/><path fill="#b9ce7d" d="m569 638 7 2v4l-9-3 2-1z"/><path fill="#d6dc4c" d="M811 616c1 3.3 1 5.9.6 9.3l-.3 2.7-.3 2-3-1v-3h2v-3.9c-.1-3.9-.1-3.9 1-6.1"/><path fill="#dee24a" d="M439 612c1.4 3.8.7 7 0 11l-3 1q.9-6.2 3-12"/><path fill="#dbe45d" d="M170 620h14v1l-2.2.1-3 .3-3 .2c-2.8.4-5.1 1.2-7.8 2.4z"/><path fill="#8eb4b3" d="m571 603 1 3-3 1v2h-2l-2 5-2-1 3-5h2l.4-2 .6-2z"/><path fill="#99b8a9" d="M1048 580h1v8h-2v5h-1a24 24 0 0 1 2-13"/><path fill="#a5c096" d="M551 848c1 3 1 5 0 8h-2v3h-3l2-5h2z"/><path fill="#ecea36" d="M550 848c1.2 2.5.8 3.4 0 6h-2l-2 5-2-4 1-2h4z"/><path fill="#dfe649" d="M171 674c2 1 2 1 2.9 3.2l.8 2.7.8 2.7c.5 2.4.5 2.4-.5 5.4a30 30 0 0 1-4-14"/><path fill="#f3ec26" d="m587 610-3 1v2h-8c2.1-4.2 6.9-3 11-3"/><path fill="#dee550" d="m638 545 11 2 1 3h-4v-2l-2.9-.4c-3.1-.6-3.1-.6-5.1-2.6"/><path fill="#dcdd50" d="m1120 480 2 1v3h2v4h-6l2-2c.2-3 .2-3 0-6"/><path fill="#a4bb93" d="M1095 470h1l1 13-1-3h-2c-.1-6.6-.1-6.6 1-10"/><path fill="#92b1ab" d="m626 449 5.8-.2 3.2-.2c3.6.5 4.7 1.6 7 4.4l-3-1a67 67 0 0 0-13-2z"/><path fill="#ced763" d="M503 692c0 3.4-.5 4-2.4 6.7l-1.4 1.9-1.2 1.4h-1c-.3-2.8-.3-2.8 0-6 2.4-1.8 2.4-1.8 5-3z"/><path fill="#b3c98a" d="m706 670 1 2h2l1 10c-2.8-4.2-4-7-4-12"/><path fill="#98b5a8" d="M703 658c2.6 1.3 3 2.4 4 5l.6 4.8.3 2.4.1 1.8c-2.6-2.6-2.8-4.6-3.6-8.1l-.8-3.3z"/><path fill="#efe92b" d="m585 658 3 1-2 3h-2l-1 3h-2c.6-3.3 1.5-4.8 4-7"/><path fill="#e8e639" d="M308 643h1c.2 5.2 0 9-2 14h-1v-9h2z"/><path fill="#97bd9f" d="m563 634 6 4v2h-5l-1 2z"/><path fill="#90b3a8" d="M679 576c4 4 4 4 4.1 7.2v4.9l-.1 1.9h-1z"/><path fill="#a6c095" d="M825 546c1.1 3.4.8 5.8 0 9.3l-1 4.7h-1l-.1-5.3-.1-3c.2-2.7.2-2.7 2.2-5.7"/><path fill="#8cb5c1" d="m1126 463 4 1 1 4-4 1z"/><path fill="#f4ea17" d="m1129 456-1 4c-2.5-1.2-4-2-6-4 2.7-1.3 4.2-.7 7 0"/><path fill="#8db1b9" d="m1074 449 3 1-1 5c-4.9-2.7-4.9-2.7-6-5l4 1z"/><path fill="#e3e54c" d="M511 848c4.9 4.8 4.9 4.8 6 7l3 2a12 12 0 0 1-7.3-2.8C511 852 511 852 511 848"/><path fill="#b4c98d" d="M302.7 819.9h3l2.3.1v1h-10l-1 3h-3v-2c3.4-2.3 4.7-2.2 8.7-2.1"/><path fill="#9bb99c" d="m746 811 9 2 1 5-1.4-1-2-1.4z"/><path fill="#a6c392" d="M243 746q6.6.6 13 2v1l-4.8.2h-2.7c-3-.2-3.7-1-5.5-3.2"/><path fill="#95b3ae" d="M718 703h1l.4 3.4c.2 3.4.2 3.4 1.6 4.6v6c-2-3-2.5-4.7-3.2-8.1l-.5-2.7-.3-2.2z"/><path fill="#d9de4d" d="M824 554h1c.2 5.2 0 9-2 14h-1v-8h2z"/><path fill="#e6e844" d="M617 537c4.1.6 7.3 2 11 4-1.6.8-1.6.8-4 1q-3.7-1.7-7-4z"/><path fill="#e4e438" d="m1129 456 4 4-3 1-1 3-3-4 2-1z"/><path fill="#dfe350" d="m1003 452-6 1v2h-2v2l-3 1 1-4h3v-2c3.1-1 4-1 7 0"/><path fill="#e7e448" d="M290 848q3.2 3.9 6 8h-5z"/><path fill="#9bb8a6" d="M506 681c-5.7 5-5.7 5-8 5 .2-1.9.2-1.9 1-4 4.3-2.3 4.3-2.3 7-1"/><path fill="#e8ea3d" d="M418 677h1c.8 2.7.8 2.7 1 6-2.4 2.9-2.4 2.9-5 5z"/><path fill="#9cbca2" d="M741 670c2.4 2.4 2.3 3.3 2.6 6.6l.3 2.5.1 1.9c-2.6-2.7-3-3.9-3.2-7.7z"/><path fill="#f1ee22" d="M569 644h7v3l-7-1z"/><path fill="#a0bf9b" d="m325 860 1 4-4-1v2l-4-1h2v-2c3-2 3-2 5-2"/><path fill="#d6dd55" d="M211 732c3.4.3 3.4.3 7 1 1.4 2 1.4 2 2 4-3.8-1-6.5-2-9-5"/><path fill="#a5be99" d="M911 718c3 3 2.6 5.8 3 10l-1-2h-2z"/><path fill="#e6e633" d="M370 713h4c-1.2 3.7-3 4.7-6 7v-4h2z"/><path fill="#dde151" d="M180 698c3 1 3 1 4.8 4l1.2 3-1 2-1-3h-2z"/><path fill="#85aec1" d="M500 670h1v6l2 1-4 3c-.1-7.7-.1-7.7 1-10"/><path fill="#c9d563" d="M473 506c1.6 3.1.7 5.6 0 9l-3 2q1-5.6 3-11"/><path fill="#e7e739" d="M478 491h1c.4 5.9.4 5.9 0 8l-4 4z"/><path fill="#a5c09e" d="m1094 458 2 1-2 3h-2l-1 5c-1.4-2.9-.6-5 0-8z"/><path fill="#9abba6" d="M707 848a25 25 0 0 1 5 10c-5-4.3-5-4.3-5.3-7.8z"/><path fill="#8fb1b9" d="M332 840h1l-2 12h-1c-.3-8.6-.3-8.6 2-12"/><path fill="#b2c88a" d="M483 740a17 17 0 0 1 1 4l-2 3-4-1h2l1-2.4c1-2.6 1-2.6 2-3.6"/><path fill="#dfe348" d="M849 736h3c-.5 3.7-1.1 5.6-4 8z"/><path fill="#e8e742" d="M249 648h1c2.3 8 2.3 8 1 12-2.1-3.2-2.2-4-2.1-7.7V650z"/><path fill="#90b7ba" d="M554 628h1v11h-3v-3h2z"/><path fill="#a0bc9c" d="M1040 614h1v7l-3 1c.9-5.7.9-5.7 2-8"/><path fill="#e7e83e" d="M966 604h1a31 31 0 0 1-2 12h-1c-.3-8.6-.3-8.6 2-12"/><path fill="#93b6ce" d="M650 553h2l-2 7-2 1c.9-5.7.9-5.7 2-8"/><path fill="#dbe449" d="M310 452h6c-4.6 4-4.6 4-8 4z"/></svg>